<?xml version="1.0" encoding="utf-8"?>
<!-- Generator: Adobe Illustrator 17.1.0, SVG Export Plug-In . SVG Version: 6.00 Build 0)  -->
<!DOCTYPE svg PUBLIC "-//W3C//DTD SVG 1.1//EN" "http://www.w3.org/Graphics/SVG/1.1/DTD/svg11.dtd">
<svg version="1.1" id="Layer_1" xmlns="http://www.w3.org/2000/svg" xmlns:xlink="http://www.w3.org/1999/xlink" x="0px" y="0px"
	 viewBox="328.2 245.2 135.6 122.6" enable-background="new 328.2 245.2 135.6 122.6" xml:space="preserve">
<g>
	<path d="M395.7,245.2c0.2,0,0.3,0,0.5,0c0.6,0.4,1.1,0.9,1.7,1.3c21.4,14,42.8,28.1,64.1,42.1c0.4,0.3,0.8,0.6,1.5,1.1
		c-5.5,0-10.7,0-16,0c0,26.1,0,52.1,0,78.1c-34.4,0-68.7,0-103.1,0c0-26.1,0-52.1,0-78.2c-5.3,0-10.5,0-15.9,0
		c0.5-0.4,0.8-0.6,1-0.8c18.8-12.3,37.5-24.6,56.3-37C389.1,249.7,392.4,247.5,395.7,245.2z"/>
	<path fill="#FFFFFF" d="M395.7,245.2c-3.3,2.2-47.5,31.3-66.3,43.6c-0.3,0.2-0.5,0.4-1,0.8c5.5,0,10.6,0,15.9,0
		c0,26.1,0,52.1,0,78.2c34.4,0,68.7,0,103.1,0c0-26,0-52,0-78.1c5.3,0,10.5,0,16,0c-0.7-0.5-44.3-29.1-65.6-43.1
		c-0.6-0.4-1.1-0.8-1.7-1.3c22.6,0,45.1,0,67.7,0c0,40.9,0,81.9,0,122.9c-45.2,0-90.3,0-135.6,0c0-40.9,0-81.9,0-122.9
		C350.7,245.2,373.2,245.2,395.7,245.2z"/>
</g>
</svg>
