<?xml version="1.0" encoding="utf-8"?>
<!-- Generator: Adobe Illustrator 17.1.0, SVG Export Plug-In . SVG Version: 6.00 Build 0)  -->
<!DOCTYPE svg PUBLIC "-//W3C//DTD SVG 1.1//EN" "http://www.w3.org/Graphics/SVG/1.1/DTD/svg11.dtd">
<svg version="1.1" id="Layer_2" xmlns="http://www.w3.org/2000/svg" xmlns:xlink="http://www.w3.org/1999/xlink" x="0px" y="0px"
	 viewBox="0 0 359.5 359.5" enable-background="new 0 0 359.5 359.5" xml:space="preserve">
<g>
	<path fill="#FFFFFF" d="M1.2,187c0-4.9,0-9.7,0-14.6c0.1-0.5,0.2-0.9,0.2-1.4c0.2-2.4,0.3-4.8,0.5-7.2c0.8-10.4,2.7-20.6,5.4-30.6
		C22.1,78.7,61.5,34.5,114.1,13.6c16.9-6.7,34.5-10.7,52.7-12c1.9-0.1,3.7-0.3,5.6-0.5c4.9,0,9.7,0,14.6,0c0.5,0.1,0.9,0.2,1.4,0.2
		c6.1,0.6,12.2,0.9,18.2,1.8c14.5,2.1,28.5,6.1,42,11.8c28.9,12.2,53.1,30.7,72.3,55.5c22.4,29,34.7,61.8,37.1,98.3
		c0.6,9.8,0.4,19.6-0.6,29.4c-1.1,11-3.2,21.9-6.4,32.5c-11.4,37.7-32.8,68.4-64.2,92c-29.9,22.5-63.8,34.2-101.2,35.5
		c-12.4,0.5-24.8-0.4-37-2.6c-18.1-3.2-35.4-9-51.6-17.7c-39-20.9-66.8-51.8-83.4-92.8c-6.8-16.9-10.7-34.5-11.9-52.6
		C1.5,190.7,1.3,188.8,1.2,187z M107.4,175c0.4-0.2,0.8-0.4,1.3-0.6c3.9-2,7.9-3.8,11.7-5.9c4.3-2.5,7.8-5.9,10-10.4
		c1.9-3.8,2.7-7.9,2.8-12.1c0.1-5.1,0.3-10.2-0.4-15.3c-0.6-4.1-1.7-8.1-3.5-11.8c-3.5-7-9.1-12-16-15.7c-5.6-3-11.6-4.9-17.9-6
		c-4.6-0.8-9.2-1.3-13.8-1.3c-15.5-0.1-31.1,0-46.6,0c-0.5,0-0.9,0-1.4,0c0,55.7,0,111.3,0,166.9c0.4,0,0.7,0,1,0
		c16.3-0.1,32.6-0.1,48.9-0.3c3,0,6.1-0.3,9.1-0.7c3.7-0.6,7.3-1.4,11-2.4c6.5-1.7,12.5-4.6,17.6-9.2c3.2-2.9,5.7-6.4,7.7-10.2
		c2.9-5.8,4.3-12,4.5-18.4c0.2-6.6,0.4-13.3-0.4-19.9c-0.5-3.7-1.4-7.3-3-10.6c-2.5-5-6.4-8.7-11.4-11.2
		C114.9,177.9,111.1,176.5,107.4,175z M339.1,140.1c-0.2-4.2-0.4-8.4-0.7-12.5c-0.3-3.3-1.4-6.3-2.9-9.2c-2-3.9-4.6-7.3-7.9-10.3
		c-2.8-2.6-6-4.7-9.3-6.5c-4.9-2.6-10-4.5-15.4-5.7c-4.6-1-9.2-1.8-13.9-1.7c-3.2,0.1-6.5,0.2-9.7,0.5c-2.7,0.3-5.4,0.7-8,1.3
		c-5.5,1.2-10.7,3.1-15.6,5.8c-5.8,3.2-10.7,7.2-14.4,12.7c-3.8,5.6-5.7,11.7-5.7,18.4c0,30.7,0,61.3,0,92c0,1.6,0.1,3.2,0.2,4.7
		c0.3,3.4,1.2,6.7,2.8,9.7c2.9,5.7,7,10.4,12.2,14.1c5.3,3.7,11.2,6.3,17.5,8c6.1,1.7,12.3,2.7,18.7,2.5c2,0,4,0,6-0.3
		c3.1-0.3,6.2-0.6,9.2-1.3c6-1.3,11.7-3.3,17-6.3c3.3-1.9,6.4-3.9,9.1-6.6c1.7-1.7,3.3-3.7,4.8-5.7c3.7-5,5.7-10.7,5.7-16.8
		c0.2-17.6,0.1-35.2,0.1-52.7c0-0.4,0-0.9,0-1.3c-17.8,0-35.4,0-53,0c0,5.7,0,11.3,0,16.9c8.5,0,17,0,25.5,0c0,0.6,0,1,0,1.5
		c0,10.5,0,21,0,31.4c0,1.8,0,3.6-0.3,5.3c-0.3,3-1.5,5.8-3.5,8.1c-4.5,5.2-10.6,7.3-17.2,7.9c-3.5,0.3-7.1,0.2-10.6-0.6
		c-4.9-1.2-9.4-3.1-12.8-7c-2.6-2.9-3.9-6.4-3.9-10.2c0-30.8,0-61.5,0-92.3c0-1.4,0.1-2.8,0.2-4.3c0.4-3,1.5-5.7,3.6-7.9
		c4.8-5.3,11.1-7.3,18-7.8c3.2-0.2,6.5-0.1,9.7,0.7c4.1,1,8,2.5,11.2,5.3c3.9,3.4,5.6,7.9,5.7,13.1c0,2.3,0,4.6,0,7
		C320.6,140.1,329.7,140.1,339.1,140.1z M194.5,212.4c-6.6,0-13.1,0-19.7,0c-0.4,0-0.9,0.3-1,0.7c-0.9,1.7-1.7,3.4-2.5,5.1
		c-3.3,7.2-6.7,14.5-10,21.7c-1.4,2.9-2.7,5.9-4.1,8.8c-1.4,2.9-2.7,5.8-4.1,8.7c-1.5,0-2.9,0-4.2,0c-0.3,0-0.8-0.4-0.8-0.7
		c-0.3-1.4-0.5-2.8-0.8-4.1c-0.6-3.3-1-6.7-1.7-10c-1.1-4.8-2.3-9.6-3.5-14.4c-1.3-5.4-2.6-10.8-3.9-16.1c-0.1,0-0.3,0-0.4,0
		c0,3.8,0.2,7.6,0,11.4c-0.1,2.8-0.6,5.7-1.2,8.5c-1.7,7.9-5.3,14.8-11.1,20.5c-1.4,1.4-3,2.6-4.4,3.9c-0.3,0.2-0.5,0.8-0.4,1.2
		c2.6,9.1,5.3,18.2,7.9,27.4c0.3,1,0.6,1.1,1.5,1.1c7.3,0,14.7,0,22,0c3.9,0,7.7,0,11.6,0c3.3-7.7,6.7-15.3,10-23
		c2.4-5.5,4.8-11.1,7.2-16.6c0.3-0.7,0.6-1.2,1.5-1.1c1,0.1,2,0,3,0.1c0.3,0,0.8,0.3,0.9,0.6c2,5,4,10.1,6,15.1
		c3.1,8,6.1,15.9,9.2,23.9c0.3,0.8,0.7,1,1.6,1c10.4,0,20.9,0,31.3,0c0.4,0,0.8,0,1.1,0c0.7-2.5,1.4-4.8,2.1-7.2
		c2.2-7.8,4.3-15.7,6.5-23.5c0.2-0.6,0-0.9-0.3-1.3c-2-2.2-4-4.3-5.8-6.6c-3.4-4.4-5.7-9.5-6.5-15c-0.6-3.8-0.6-7.6-0.8-11.4
		c-0.1-4.1,0-8.3,0-12.4c0-0.5,0-1,0-1.5c-3.9,16.7-8.2,33.3-9.7,50.5c-1.6,0-3,0-4.3,0c-0.7,0-1-0.2-1.3-0.9
		c-0.7-1.8-1.5-3.5-2.4-5.2c-2.5-5.4-5.1-10.7-7.6-16.1c-2.9-6.2-5.9-12.4-8.8-18.5C195.8,215.2,195.2,213.8,194.5,212.4z
		 M166.5,70.5c-1.7,4.6-3.5,9.1-5.1,13.7c-1.8,5.3-3.5,10.6-5.1,16c-1.2,4-2.2,8-3,12c-0.9,4.5-1.6,9-2.2,13.5
		c-0.5,3.5-0.8,7-0.9,10.6c-0.2,5.2,0.1,10.4,0.9,15.6c0.8,4.9,2.1,9.7,4.3,14.2c2.1,4.3,5.1,7.7,8.8,10.7c4.7,3.8,10,6.5,16,7.7
		c0.2,0,0.5,0.6,0.5,0.9c0,0.4-0.2,0.7-0.4,1.1c-1.3,2.9-2.1,6-1.9,9.2c0.1,0.6,0.4,1.4,0.8,1.9c1.3,1.5,4.5,1.8,6.5,0.7
		c0.9-0.5,2-1.3,2.2-2.1c0.3-1.9,0.2-3.8-0.1-5.7c-0.4-2.6-1.2-5-1.8-7.5c1.4-0.2,3-0.4,4.5-0.6c6.2-1,11.5-3.8,16-7.9
		c3-2.7,5.2-6.1,6.7-9.8c2.8-6.8,4.1-13.9,4.2-21.2c0-1.9-0.1-3.8-0.2-5.7c-0.1-1.7-0.2-3.5-0.5-5.2c-0.6-3.1-1.4-6.2-2.1-9.2
		c-0.3-1.3-0.9-2.6-1.4-4.1c-2.6,2.9-5.3,5.1-8.6,6.5c-4.4,1.9-8.8,1.9-13-0.5c-4.5-2.5-7.3-6.4-8.6-11.4c-1.1-4.3-1-8.5,1.5-12.2
		c2.7-4.1,6.9-5.7,11.6-6.1c1.3-0.1,2.7,0,4.2,0c-3.3-3.6-6.7-6.8-10.6-9.3c-4.7-3-9.6-5.6-14.3-8.4C172.1,75.8,169,73.7,166.5,70.5
		z"/>
	<path fill="#FFFFFF" d="M61,242.8c0-20,0-39.8,0-59.8c0.4,0,0.8,0,1.2,0c3.9,0,7.9,0,11.8,0c3.2,0,6.4,0,9.6,0.3c5.3,0.4,10.5,1.4,15,4.4
		c4.5,2.9,7,7.2,7.9,12.4c0.9,5,1.2,10.1,0.9,15.2c-0.2,3.9-0.3,7.9-1.4,11.8c-1.5,5.1-4.4,9-9,11.7c-3.5,2-7.3,3.2-11.3,3.5
		c-3,0.2-5.9,0.4-8.9,0.5c-4.9,0.1-9.7,0-14.6,0C62,242.8,61.6,242.8,61,242.8z"/>
	<path fill="#FFFFFF" d="M61,114.1c0.7,0,1.3,0,2,0c5.5,0,10.9,0,16.4,0c5.2,0,10.4,0.7,15.3,2.7c4.2,1.6,7.5,4.4,9.6,8.4c1.9,3.5,2.7,7.1,3.1,11
		c0.5,4.9,0.1,9.8-1.3,14.5c-2.1,7.2-6.8,12-14.2,13.9c-4.1,1-8.3,1.5-12.5,1.5c-5.7,0-11.4,0.1-17.2,0.2c-0.9,0-1.3-0.1-1.3-1.2
		c0-16.8,0-33.6,0-50.4C61,114.5,61,114.4,61,114.1z"/>
</g>
</svg>
